<?xml version="1.0" encoding="UTF-8" standalone="no"?>
<!-- Created with Inkscape (http://www.inkscape.org/) -->

<svg
   xmlns:dc="http://purl.org/dc/elements/1.1/"
   xmlns:cc="http://creativecommons.org/ns#"
   xmlns:rdf="http://www.w3.org/1999/02/22-rdf-syntax-ns#"
   xmlns:svg="http://www.w3.org/2000/svg"
   xmlns="http://www.w3.org/2000/svg"
   xmlns:xlink="http://www.w3.org/1999/xlink"
   xmlns:sodipodi="http://sodipodi.sourceforge.net/DTD/sodipodi-0.dtd"
   xmlns:inkscape="http://www.inkscape.org/namespaces/inkscape"
   width="793.70081"
   height="1122.5197"
   viewBox="0 0 210 297"
   version="1.1"
   id="svg611"
   inkscape:version="0.92.4 (5da689c313, 2019-01-14)"
   sodipodi:docname="logoBurger.svg">
  <defs
     id="defs605">
    <path
       style="display:inline;opacity:1;fill:none;stroke:#000000;stroke-width:0.26458332px;stroke-linecap:butt;stroke-linejoin:miter;stroke-opacity:1"
       d="m 55.755107,88.377019 c 16.563844,-8.368797 32.830491,-8.118904 48.825803,0"
       id="path419-3"
       inkscape:connector-curvature="0"
       sodipodi:nodetypes="cc" />
  </defs>
  <sodipodi:namedview
     id="base"
     pagecolor="#ffffff"
     bordercolor="#666666"
     borderopacity="1.0"
     inkscape:pageopacity="0.0"
     inkscape:pageshadow="2"
     inkscape:zoom="1.8946457"
     inkscape:cx="286.21732"
     inkscape:cy="475.74406"
     inkscape:document-units="px"
     inkscape:current-layer="layer1"
     showgrid="false"
     inkscape:window-width="1366"
     inkscape:window-height="705"
     inkscape:window-x="-8"
     inkscape:window-y="-8"
     inkscape:window-maximized="1"
     units="px" />
  <metadata
     id="metadata608">
    <rdf:RDF>
      <cc:Work
         rdf:about="">
        <dc:format>image/svg+xml</dc:format>
        <dc:type
           rdf:resource="http://purl.org/dc/dcmitype/StillImage" />
        <dc:title />
      </cc:Work>
    </rdf:RDF>
  </metadata>
  <g
     inkscape:label="Camada 1"
     inkscape:groupmode="layer"
     id="layer1"
     style="display:inline">
    <g
       id="g73"
       transform="matrix(0.4819934,0,0,0.42390578,23.946726,106.09381)"
       inkscape:export-xdpi="96"
       inkscape:export-ydpi="96"
       inkscape:export-filename="D:\Desktop\IF\Autoria Web\ReproducaoAutoria\icones\logos\logoPequena.png">
      <g
         transform="translate(-41.078332,15.009391)"
         id="g43">
        <path
           style="display:inline;opacity:1;fill:#ff0000;stroke-width:0.2867122"
           d="m 112.70744,150.60213 c -0.10787,6.76277 -5.91478,12.24649 -13.211023,12.24649 -7.296241,0 -13.211017,-5.48295 -13.211017,-12.24649 0,-7.35325 3.32072,-10.3634 3.666553,-10.89014 0.484177,3.16038 2.070387,2.95481 2.070387,2.95481 0,0 -0.296614,-8.41856 8.83351,-14.14676 -2.90504,5.33316 2.44479,8.51877 2.44479,8.51877 0,0 9.54514,4.89037 9.4068,13.56332 z"
           id="path3727-9"
           inkscape:connector-curvature="0"
           sodipodi:nodetypes="sssccccs" />
        <path
           style="display:inline;opacity:1;fill:#2b0000;stroke-width:0.26754731"
           d="m 107.06406,150.44439 a 1.6858804,1.6623411 0 0 0 -1.68607,1.66265 1.6858804,1.6623411 0 0 0 1.68607,1.66221 1.6858804,1.6623411 0 0 0 1.68608,-1.66221 1.6858804,1.6623411 0 0 0 -1.68608,-1.66265 z m 0.0141,1.03858 a 0.67583971,0.64333867 0 0 1 0.67548,0.64343 0.67583971,0.64333867 0 0 1 -0.67548,0.64342 0.67583971,0.64333867 0 0 1 -0.67594,-0.64342 0.67583971,0.64333867 0 0 1 0.67594,-0.64343 z"
           id="path3733-8"
           inkscape:connector-curvature="0" />
        <path
           style="display:inline;opacity:1;fill:#2b0000;stroke-width:0.22083327"
           d="m 92.626268,148.90137 c -3.196791,0.32878 -3.040516,4.11727 -0.516787,4.6736 l 11.091679,0.0189 c 1.66972,-0.11354 2.30553,-2.78163 0.1985,-3.34928 z m -0.159152,1.17325 10.574904,1.0596 c 1.27217,0.71903 0.0398,1.43795 0.0398,1.43795 l -10.734034,-0.15151 c -0.513838,0.13492 -1.921177,-1.71666 0.119352,-2.34604 z"
           id="path3737-7"
           inkscape:connector-curvature="0" />
        <path
           style="display:inline;opacity:1;fill:#2b0000;stroke-width:0.22083327"
           d="m 92.183604,147.44845 c -0.225019,1.15132 0.33775,1.17828 0.33775,1.17828 l 13.360856,1.47286 c 0.93231,-0.0906 1.34033,-0.72253 0.14058,-1.17828 L 93.427168,147.581 c 2.995477,-5.64541 11.043322,-3.29199 12.106202,0.30742 0.22267,0.52034 1.22695,0.60657 1.07358,-0.30863 -2.41852,-6.06215 -12.220329,-5.786 -14.423346,-0.13134 z"
           id="rect3748-4"
           inkscape:connector-curvature="0"
           sodipodi:nodetypes="cccccccc" />
        <ellipse
           style="display:inline;opacity:1;fill:#2b0000;stroke-width:0.21254784"
           id="path3757-2"
           cx="98.263199"
           cy="145.30374"
           rx="0.49835059"
           ry="0.54740691" />
        <path
           style="display:inline;opacity:1;fill:#2b0000;stroke-width:0.21611208"
           d="m 92.548317,153.91345 c -0.446246,0.0494 -0.51062,0.93511 0,1.12021 l 12.922763,-0.0118 c 0.0169,2.80338 -9.484143,3.96779 -12.25655,0.70613 -0.41585,-0.36785 -1.326456,0.22537 -1.037556,0.61397 2.264625,3.63706 14.655056,3.1171 14.542526,-1.32136 0.19633,-1.12136 -0.519,-1.10717 -0.519,-1.10717 z"
           id="rect3784-2"
           inkscape:connector-curvature="0" />
        <ellipse
           style="display:inline;opacity:1;fill:#2b0000;stroke-width:0.22083327"
           id="path3820-0"
           cx="100.39761"
           cy="145.36188"
           rx="0.50503021"
           ry="0.54672778" />
        <ellipse
           style="display:inline;opacity:1;fill:#2b0000;stroke-width:0.22083327"
           id="path3822-3"
           cx="102.36823"
           cy="146.05"
           rx="0.51493275"
           ry="0.55615413" />
      </g>
      <text
         transform="scale(1.0249484,0.97565887)"
         id="text465-7-3"
         y="158.58128"
         x="97.335754"
         style="font-style:normal;font-weight:normal;font-size:8.83333111px;line-height:1.25;font-family:sans-serif;letter-spacing:0px;word-spacing:0px;display:inline;opacity:1;fill:#000000;fill-opacity:1;stroke:none;stroke-width:0.22083326"
         xml:space="preserve"><tspan
           style="font-style:normal;font-variant:normal;font-weight:normal;font-stretch:normal;font-family:'Cooper Black';-inkscape-font-specification:'Cooper Black, ';stroke-width:0.22083326"
           y="158.58128"
           x="97.335754"
           id="tspan463-0-0"
           sodipodi:role="line">PhD</tspan></text>
      <text
         transform="translate(-3.630846,-10.333946)"
         id="text49"
         style="font-style:normal;font-weight:normal;font-size:10.58333302px;line-height:1.25;font-family:sans-serif;letter-spacing:0px;word-spacing:0px;fill:#000000;fill-opacity:1;stroke:none;stroke-width:0.26458332"
         xml:space="preserve"><textPath
           id="textPath56"
           xlink:href="#path45"><tspan
   id="tspan47"
   style="font-style:normal;font-variant:normal;font-weight:normal;font-stretch:normal;font-size:17.22613907px;font-family:'Cooper Black';-inkscape-font-specification:'Cooper Black, ';stroke-width:0.26458332">Burguer</tspan></textPath></text>
    </g>
  </g>
  <g
     inkscape:groupmode="layer"
     id="layer2"
     inkscape:label="linha"
     style="display:none">
    <path
       style="display:inline;fill:none;stroke:#000000;stroke-width:0.26458332px;stroke-linecap:butt;stroke-linejoin:miter;stroke-opacity:1"
       d="m 78.761425,182.48868 c 26.170725,-6.43343 49.610615,-7.06385 69.823965,-0.83788"
       id="path45"
       inkscape:connector-curvature="0"
       sodipodi:nodetypes="cc" />
  </g>
</svg>
