<?xml version="1.0" encoding="UTF-8" standalone="no"?>
<!-- Created with Inkscape (http://www.inkscape.org/) -->

<svg
   xmlns:dc="http://purl.org/dc/elements/1.1/"
   xmlns:cc="http://creativecommons.org/ns#"
   xmlns:rdf="http://www.w3.org/1999/02/22-rdf-syntax-ns#"
   xmlns:svg="http://www.w3.org/2000/svg"
   xmlns="http://www.w3.org/2000/svg"
   xmlns:sodipodi="http://sodipodi.sourceforge.net/DTD/sodipodi-0.dtd"
   xmlns:inkscape="http://www.inkscape.org/namespaces/inkscape"
   width="48"
   height="48"
   viewBox="0 0 12.7 12.7"
   version="1.1"
   id="svg611"
   inkscape:version="0.92.4 (5da689c313, 2019-01-14)"
   sodipodi:docname="faceBurger.svg">
  <defs
     id="defs605" />
  <sodipodi:namedview
     id="base"
     pagecolor="#ffffff"
     bordercolor="#666666"
     borderopacity="1.0"
     inkscape:pageopacity="0.0"
     inkscape:pageshadow="2"
     inkscape:zoom="1.050338"
     inkscape:cx="-89.510599"
     inkscape:cy="-10.952272"
     inkscape:document-units="px"
     inkscape:current-layer="layer1"
     showgrid="false"
     inkscape:window-width="1366"
     inkscape:window-height="705"
     inkscape:window-x="-8"
     inkscape:window-y="-8"
     inkscape:window-maximized="1"
     units="px" />
  <metadata
     id="metadata608">
    <rdf:RDF>
      <cc:Work
         rdf:about="">
        <dc:format>image/svg+xml</dc:format>
        <dc:type
           rdf:resource="http://purl.org/dc/dcmitype/StillImage" />
        <dc:title></dc:title>
      </cc:Work>
    </rdf:RDF>
  </metadata>
  <g
     inkscape:groupmode="layer"
     id="layer1"
     inkscape:label="fbFechado"
     style="display:inline">
    <g
       style="display:inline;opacity:1"
       id="g20"
       transform="matrix(0.25529502,0,0,0.22460023,54.76822,-54.856318)"
       inkscape:export-xdpi="96"
       inkscape:export-ydpi="96">
      <path
         inkscape:connector-curvature="0"
         id="path22-2-5-9-5"
         d="m -27.566769,264.36861 a 15.930829,15.318776 0 0 0 -15.930738,15.31871 15.930829,15.318776 0 0 0 15.930738,15.31883 15.930829,15.318776 0 0 0 15.93084,-15.31883 15.930829,15.318776 0 0 0 -15.93084,-15.31871 z m 4.68516,5.61542 -0.0205,3.43379 -2.23467,-0.033 c -0.98982,0.0633 -0.89736,0.91717 -0.89736,0.91717 l 0.0237,2.13484 3.1183,-0.0195 -0.29556,3.30017 -2.86981,-0.006 0.0181,9.92926 -4.03777,-0.0154 -0.009,-9.937 -2.20415,0.0323 0.0423,-3.30595 2.12771,-0.0119 -0.0344,-3.26853 c 0,0 0.19727,-2.93728 3.59567,-3.09553 z"
         style="display:inline;opacity:1;fill:#000000;stroke-width:0.0502126" />
      <path
         sodipodi:nodetypes="cccccc"
         inkscape:connector-curvature="0"
         id="rect195-8-5"
         d="m -50.480881,292.71988 46.3345119,0.25512 c 0.90232,-0.12758 1.23247,1.21276 1.23247,1.21276 -0.27243,11.47159 -45.6679019,12.57028 -48.9468719,-0.17201 0,0 -0.25554,-1.35966 1.37989,-1.29586 z"
         style="display:inline;opacity:1;fill:#d45500;stroke-width:0.54713118" />
      <path
         inkscape:connector-curvature="0"
         id="rect54-3-4"
         d="m -27.841199,246.64069 c -12.249804,0.0652 -24.491298,7.07616 -24.815918,20.94443 -0.0532,1.09447 0.58503,0.91983 0.58503,0.91983 l 48.5450479,-0.18245 c 0,0 0.52492,-0.0398 0.55151,-0.95191 -0.35731,-13.91435 -12.6158699,-20.79504 -24.8656699,-20.72976 z m 0.95879,3.46749 a 0.5184679,0.77072244 0 0 1 0.51901,0.77072 0.5184679,0.77072244 0 0 1 -0.51901,0.77071 0.5184679,0.77072244 0 0 1 -0.51799,-0.77071 0.5184679,0.77072244 0 0 1 0.51799,-0.77072 z m -7.21228,0.61045 a 0.52824716,1.0134547 27.589472 0 1 0.001,0 0.52824716,1.0134547 27.589472 0 1 0.21735,0.11557 0.52824716,1.0134547 27.589472 0 1 -0.22345,1.26548 0.52824716,1.0134547 27.589472 0 1 -0.91004,0.36375 0.52824716,1.0134547 27.589472 0 1 0.22243,-1.26407 0.52824716,1.0134547 27.589472 0 1 0.69269,-0.48084 z m 3.57821,0.82644 a 1.0876235,0.58819621 83.597908 0 1 0.63682,0.89615 1.0876235,0.58819621 83.597908 0 1 -0.38087,1.25296 1.0876235,0.58819621 83.597908 0 1 -0.75363,-0.88082 1.0876235,0.58819621 83.597908 0 1 0.38088,-1.25294 1.0876235,0.58819621 83.597908 0 1 0.11681,-0.0158 z m 6.93907,0.0447 a 0.54007075,1.0671543 0 0 1 0.54033,1.06758 0.54007075,1.0671543 0 0 1 -0.54033,1.06758 0.54007075,1.0671543 0 0 1 -0.53932,-1.06758 0.54007075,1.0671543 0 0 1 0.53932,-1.06758 z m 5.31501,0.23683 a 0.49686506,1.0671543 0 0 1 0.49666,1.06758 0.49686506,1.0671543 0 0 1 -0.49666,1.06756 0.49686506,1.0671543 0 0 1 -0.49768,-1.06756 0.49686506,1.0671543 0 0 1 0.49768,-1.06758 z m -21.351454,0.76655 a 0.6104505,1.280385 17.214745 0 1 0.21735,0.0598 0.6104505,1.280385 17.214745 0 1 0.0366,1.56092 0.6104505,1.280385 17.214745 0 1 -0.98216,0.78748 0.6104505,1.280385 17.214745 0 1 -0.0376,-1.56096 0.6104505,1.280385 17.214745 0 1 0.76582,-0.84737 z m 11.909764,1.67798 a 0.9404228,0.33706787 73.281767 0 1 0.001,0 0.9404228,0.33706787 73.281767 0 1 0.5312,0.71779 0.9404228,0.33706787 73.281767 0 1 0.008,1.07451 0.9404228,0.33706787 73.281767 0 1 -0.59519,-0.69822 0.9404228,0.33706787 73.281767 0 1 -0.009,-1.07457 0.9404228,0.33706787 73.281767 0 1 0.064,-0.0185 z m 12.44198,0.13938 a 0.44338499,0.8376879 11.786056 0 1 0.11578,0.0337 0.44338499,0.8376879 11.786056 0 1 0.15539,1.02158 0.44338499,0.8376879 11.786056 0 1 -0.64191,0.56305 0.44338499,0.8376879 11.786056 0 1 -0.15539,-1.02297 0.44338499,0.8376879 11.786056 0 1 0.52611,-0.59512 z m -5.39525,0.12539 a 0.48215648,0.94829945 19.61008 0 1 0.16455,0.0668 0.48215648,0.94829945 19.61008 0 1 -0.0274,1.18463 0.48215648,0.94829945 19.61008 0 1 -0.78411,0.49617 0.48215648,0.94829945 19.61008 0 1 0.0274,-1.18327 0.48215648,0.94829945 19.61008 0 1 0.61956,-0.56441 z m -23.966808,1.33795 a 0.42775174,1.5931678 0 0 1 0.42759,1.59298 0.42775174,1.5931678 0 0 1 -0.42759,1.59298 0.42775174,1.5931678 0 0 1 -0.4276,-1.59298 0.42775174,1.5931678 0 0 1 0.4276,-1.59298 z m 9.547314,0.39997 a 0.50976422,1.0333309 14.360896 0 1 0.181814,0.0501 0.50976422,1.0333309 14.360896 0 1 0.0873,1.2766 0.50976422,1.0333309 14.360896 0 1 -0.782074,0.63832 0.50976422,1.0333309 14.360896 0 1 -0.0873,-1.27523 0.50976422,1.0333309 14.360896 0 1 0.60026,-0.68988 z m 23.079124,0.29685 a 0.62648198,0.65214979 0 0 1 0.62666,0.65086 0.62648198,0.65214979 0 0 1 -0.62666,0.65224 0.62648198,0.65214979 0 0 1 -0.62668,-0.65224 0.62648198,0.65214979 0 0 1 0.62668,-0.65086 z m -20.24438,0.73585 a 0.43859257,0.96364692 9.4690289 0 1 0.0741,0.0158 0.43859257,0.96364692 9.4690289 0 1 0.21329,1.10519 0.43859257,0.96364692 9.4690289 0 1 -0.61549,0.77069 0.43859257,0.96364692 9.4690289 0 1 -0.2133,-1.10518 0.43859257,0.96364692 9.4690289 0 1 0.54136,-0.78605 z m 8.95112,0.44181 a 0.9459967,0.4914533 76.260361 0 1 0.001,0 0.9459967,0.4914533 76.260361 0 1 0.59519,0.64527 0.9459967,0.4914533 76.260361 0 1 -0.12088,1.16373 0.9459967,0.4914533 76.260361 0 1 -0.73636,-0.60209 0.9459967,0.4914533 76.260361 0 1 0.12085,-1.16372 0.9459967,0.4914533 76.260361 0 1 0.14015,-0.0432 z m 8.65758,1.19297 a 0.41045373,1.2450131 0 0 1 0.41034,1.24458 0.41045373,1.2450131 0 0 1 -0.41034,1.24598 0.41045373,1.2450131 0 0 1 -0.41032,-1.24598 0.41045373,1.2450131 0 0 1 0.41032,-1.24458 z m -25.034274,1.0634 a 0.55916042,0.85664424 34.376038 0 1 0.35345,0.22707 0.55916042,0.85664424 34.376038 0 1 -0.35752,1.09544 0.55916042,0.85664424 34.376038 0 1 -0.87551,0 0.55916042,0.85664424 34.376038 0 1 0.35854,-1.09544 0.55916042,0.85664424 34.376038 0 1 0.52104,-0.22707 z m 20.893384,0.50452 a 0.50077926,1.074158 27.276572 0 1 0.21634,0.0892 0.50077926,1.074158 27.276572 0 1 -0.22751,1.3017 0.50077926,1.074158 27.276572 0 1 -0.91106,0.48222 0.50077926,1.074158 27.276572 0 1 0.22853,-1.30171 0.50077926,1.074158 27.276572 0 1 0.6937,-0.57141 z m -8.21475,0.22573 a 0.61010112,0.80820993 50.489985 0 1 0.001,0 0.61010112,0.80820993 50.489985 0 1 0.50174,0.38047 0.61010112,0.80820993 50.489985 0 1 -0.57487,0.93656 0.61010112,0.80820993 50.489985 0 1 -0.86536,-0.30382 0.61010112,0.80820993 50.489985 0 1 0.57487,-0.93796 0.61010112,0.80820993 50.489985 0 1 0.3626,-0.0754 z"
         style="display:inline;opacity:1;fill:#d45500;stroke-width:0.60915858" />
    </g>
  </g>
  <g
     inkscape:groupmode="layer"
     id="layer3"
     inkscape:label="fbAberto"
     style="display:inline;opacity:1"
     transform="translate(0,-284.29999)">
    <g
       style="display:inline;opacity:1"
       id="g27"
       transform="matrix(0.25518556,0,0,0.22460018,15.405874,255.33187)"
       inkscape:export-xdpi="96"
       inkscape:export-ydpi="96">
      <path
         sodipodi:nodetypes="cccccccccccccccccccccccccccccccccccccccccccccccccccccccccccccccccccccccccccccccccccccccccccccccccccccccccccccccccccccccccccc"
         inkscape:connector-curvature="0"
         id="rect54-3-7-0"
         d="m 50.201473,131.55973 c -12.249803,0.0652 -24.491291,7.07616 -24.815911,20.94442 -0.0532,1.09447 0.58503,0.91983 0.58503,0.91983 0,0 -0.621027,-4.12758 24.301581,-4.74187 24.57159,0 24.24347,4.55942 24.24347,4.55942 0,0 0.52492,-0.0398 0.55151,-0.95191 -0.35732,-13.91434 -12.61588,-20.79503 -24.86568,-20.72975 z m 0.95879,3.46749 c 0.28656,-4.5e-4 0.51901,0.34475 0.51901,0.77072 0,0.42597 -0.23246,0.77116 -0.51901,0.77071 -0.28615,-4e-4 -0.51798,-0.34533 -0.51799,-0.77071 0,-0.42538 0.23184,-0.77033 0.51799,-0.77072 z m -7.212281,0.61045 h 10e-4 c 0.08873,0.005 0.163201,0.0447 0.217351,0.11557 0.18987,0.24884 0.0898,0.8155 -0.223447,1.26548 -0.313004,0.44941 -0.720285,0.61221 -0.91004,0.36375 -0.189656,-0.24852 -0.09012,-0.8142 0.222432,-1.26407 0.213014,-0.30649 0.480631,-0.49226 0.692688,-0.48084 z m 3.578211,0.82644 c 0.28203,0.014 0.54834,0.38875 0.63682,0.89615 0.10273,0.58889 -0.0678,1.14975 -0.38087,1.25296 -0.31345,0.10323 -0.65098,-0.29126 -0.75363,-0.88082 -0.10272,-0.58888 0.0678,-1.14973 0.38088,-1.25294 0.038,-0.0125 0.0771,-0.0178 0.11681,-0.0158 z m 6.93907,0.0447 c 0.29846,-2.9e-4 0.54046,0.47784 0.54034,1.06758 1.2e-4,0.58974 -0.24188,1.06787 -0.54034,1.06758 -0.29807,-8.2e-4 -0.53944,-0.47862 -0.53932,-1.06758 -1.2e-4,-0.58896 0.24125,-1.06676 0.53932,-1.06758 z m 5.31501,0.23683 c 0.27441,2.3e-4 0.49677,0.47821 0.49666,1.06758 1.1e-4,0.58937 -0.22226,1.06733 -0.49666,1.06756 -0.2748,9.5e-4 -0.49778,-0.47735 -0.49768,-1.06756 -1.1e-4,-0.59022 0.22287,-1.06854 0.49768,-1.06758 z m -21.351451,0.76655 c 0.0803,-0.008 0.154004,0.012 0.217351,0.0598 0.281321,0.21395 0.297691,0.91267 0.03657,1.56092 -0.261035,0.64789 -0.700566,1.0003 -0.982156,0.78748 -0.281936,-0.21311 -0.298765,-0.91212 -0.03758,-1.56096 0.195097,-0.48417 0.499207,-0.82066 0.76582,-0.84737 z m 11.909771,1.67798 h 10e-4 c 0.16543,-0.004 0.38756,0.29629 0.53119,0.71779 0.16693,0.48984 0.17052,0.97114 0.008,1.07451 -0.16222,0.10314 -0.42856,-0.20931 -0.59518,-0.69822 -0.16675,-0.4888 -0.17091,-0.96965 -0.009,-1.07457 0.0195,-0.012 0.041,-0.0182 0.064,-0.0185 z m 12.44197,0.13938 c 0.0407,10e-4 0.0797,0.0125 0.11578,0.0337 0.2198,0.12692 0.28935,0.58415 0.15539,1.02158 -0.13418,0.43834 -0.42178,0.69061 -0.64191,0.56305 -0.22029,-0.12674 -0.2899,-0.58499 -0.15539,-1.02297 0.10922,-0.35613 0.32445,-0.59959 0.52611,-0.59512 z m -5.39524,0.12539 c 0.0618,0.002 0.11764,0.0245 0.16454,0.0668 0.20917,0.18974 0.19689,0.72033 -0.0274,1.18463 -0.22414,0.46426 -0.57528,0.68646 -0.7841,0.49617 -0.20855,-0.18999 -0.19628,-0.71952 0.0274,-1.18327 0.16733,-0.34687 0.41342,-0.57106 0.61956,-0.56441 z m -23.96681,1.33795 c 0.236162,3.2e-4 0.427572,0.71339 0.4276,1.59298 -2.8e-5,0.87959 -0.191438,1.59267 -0.4276,1.59298 -0.236162,-3.2e-4 -0.427573,-0.71339 -0.4276,-1.59298 2.7e-5,-0.87959 0.191438,-1.59267 0.4276,-1.59298 z m 9.547314,0.39997 c 0.06607,-0.006 0.127727,0.0105 0.181804,0.0501 0.240335,0.17574 0.279454,0.74752 0.08734,1.2766 -0.191954,0.52872 -0.542109,0.81452 -0.782066,0.63832 -0.239817,-0.17597 -0.278907,-0.74672 -0.08734,-1.27523 0.143014,-0.39466 0.381332,-0.66856 0.600262,-0.68988 z m 23.079116,0.29685 c 0.34559,-1.1e-4 0.62599,0.29112 0.62667,0.65086 5e-5,0.36028 -0.28057,0.65235 -0.62667,0.65224 -0.3461,1.1e-4 -0.62672,-0.29196 -0.62667,-0.65224 7.9e-4,-0.35975 0.28108,-0.65097 0.62667,-0.65086 z m -20.24438,0.73585 c 0.0255,5.3e-4 0.0503,0.006 0.0741,0.0158 0.22876,0.0925 0.32422,0.58715 0.21329,1.10519 -0.11118,0.51797 -0.38667,0.86292 -0.61549,0.77069 -0.22875,-0.0925 -0.32422,-0.58714 -0.21329,-1.10518 0.0977,-0.45601 0.32612,-0.78762 0.54135,-0.78605 z m 8.95112,0.44181 h 10e-4 c 0.21934,-0.003 0.46057,0.25863 0.59519,0.64527 0.16975,0.48714 0.11564,1.00801 -0.12088,1.16373 -0.23694,0.15526 -0.56668,-0.11436 -0.73636,-0.60209 -0.16974,-0.48712 -0.11565,-1.00798 0.12086,-1.16372 0.0429,-0.0279 0.0901,-0.0425 0.14015,-0.0432 z m 8.65759,1.19297 c 0.22658,2.1e-4 0.41025,0.55729 0.41033,1.24458 1.8e-4,0.68783 -0.18357,1.24577 -0.41033,1.24598 -0.22676,-2.1e-4 -0.41051,-0.55815 -0.41033,-1.24598 8e-5,-0.68728 0.18375,-1.24437 0.41033,-1.24458 z m -25.034283,1.0634 c 0.159693,0.003 0.286463,0.0847 0.353453,0.22707 0.143208,0.30206 -0.0169,0.79263 -0.357516,1.09544 -0.340829,0.30294 -0.733023,0.30294 -0.87551,0 -0.142812,-0.30241 0.01775,-0.79298 0.358533,-1.09544 0.166753,-0.1482 0.354728,-0.23012 0.52104,-0.22707 z m 20.893383,0.50452 c 0.0885,-0.006 0.16263,0.0245 0.21634,0.0892 0.1884,0.22639 0.0866,0.80905 -0.22751,1.3017 -0.31455,0.49333 -0.72264,0.70934 -0.91106,0.48222 -0.18776,-0.22708 -0.0855,-0.80955 0.22853,-1.30171 0.21405,-0.33568 0.48209,-0.55647 0.6937,-0.57141 z m -8.21475,0.22573 h 10e-4 c 0.25643,0.007 0.44883,0.15332 0.50174,0.38047 0.0794,0.34277 -0.17782,0.76177 -0.57487,0.93656 -0.39758,0.17505 -0.785,0.039 -0.86536,-0.30382 -0.0803,-0.34301 0.17711,-0.76301 0.57488,-0.93796 0.12054,-0.0529 0.24521,-0.0788 0.36259,-0.0754 z"
         style="display:inline;opacity:1;fill:#d45500;stroke-width:0.60915858" />
      <path
         sodipodi:nodetypes="cccccc"
         inkscape:connector-curvature="0"
         id="rect195-8-8-1"
         d="m 27.561809,177.63893 c 0,0 -1.698683,3.80233 22.187314,3.80233 25.23341,0.36748 24.14719,-3.54722 24.14719,-3.54722 0.90231,-0.12757 1.23247,1.21276 1.23247,1.21276 -0.27243,11.4716 -45.667895,12.5703 -48.946875,-0.172 0,0 -0.937618,-1.31512 1.379901,-1.29587 z"
         style="display:inline;opacity:1;fill:#d45500;stroke-width:0.54713118" />
      <path
         id="path86-7"
         d="m 50.190053,148.43007 a 24.829174,4.4389215 0 0 0 -24.828976,4.43901 24.829174,4.4389215 0 0 0 11.530044,3.74292 15.930829,15.318776 0 0 1 0.107487,-0.18035 15.930829,15.318776 0 0 1 0.92656,-1.2454 15.930829,15.318776 0 0 1 1.050582,-1.15084 15.930829,15.318776 0 0 1 1.165304,-1.04334 15.930829,15.318776 0 0 1 1.267621,-0.92708 15.930829,15.318776 0 0 1 1.35754,-0.80047 15.930829,15.318776 0 0 1 1.434018,-0.66559 15.930829,15.318776 0 0 1 1.49604,-0.52503 15.930829,15.318776 0 0 1 1.54254,-0.37931 15.930829,15.318776 0 0 1 1.57458,-0.22841 15.930829,15.318776 0 0 1 1.5906,-0.077 15.930829,15.318776 0 0 1 1.12706,0.0388 15.930829,15.318776 0 0 1 1.58078,0.18449 15.930829,15.318776 0 0 1 1.5534,0.33538 15.930829,15.318776 0 0 1 1.51153,0.48266 15.930829,15.318776 0 0 1 1.45315,0.62528 15.930829,15.318776 0 0 1 1.38131,0.76223 15.930829,15.318776 0 0 1 1.29552,0.89039 15.930829,15.318776 0 0 1 1.19631,1.01079 15.930829,15.318776 0 0 1 1.08521,1.12034 15.930829,15.318776 0 0 1 0.96377,1.21905 15.930829,15.318776 0 0 1 0.32607,0.51108 24.829174,4.4389215 0 0 0 11.14092,-3.70055 24.829174,4.4389215 0 0 0 -24.82897,-4.43901 z"
         style="display:inline;opacity:1;fill:#ff7f2a;stroke-width:0.32271534"
         inkscape:connector-curvature="0" />
      <ellipse
         ry="3.8585069"
         rx="24.314716"
         cy="178.48708"
         cx="50.394642"
         id="path88-0"
         style="display:inline;opacity:1;fill:#ff7f2a;stroke-width:0.28423563" />
      <path
         inkscape:connector-curvature="0"
         id="path22-2-5-9"
         d="m 50.475913,149.28765 a 15.930829,15.318776 0 0 0 -15.930729,15.31871 15.930829,15.318776 0 0 0 15.930729,15.31883 15.930829,15.318776 0 0 0 15.93084,-15.31883 15.930829,15.318776 0 0 0 -15.93084,-15.31871 z m 4.68516,5.61542 -0.0205,3.43379 -2.23467,-0.033 c -0.98982,0.0633 -0.89736,0.91717 -0.89736,0.91717 l 0.0237,2.13484 3.1183,-0.0195 -0.29556,3.30017 -2.86981,-0.006 0.0181,9.92926 -4.03777,-0.0154 -0.009,-9.937 -2.20415,0.0323 0.0423,-3.30595 2.12771,-0.0119 -0.0344,-3.26853 c 0,0 0.19727,-2.93728 3.59567,-3.09553 z"
         style="display:inline;opacity:1;fill:#000080;stroke-width:0.0502126" />
    </g>
  </g>
</svg>
