<?xml version="1.0" encoding="UTF-8" standalone="no"?>
<!-- Created with Inkscape (http://www.inkscape.org/) -->

<svg
   xmlns:dc="http://purl.org/dc/elements/1.1/"
   xmlns:cc="http://creativecommons.org/ns#"
   xmlns:rdf="http://www.w3.org/1999/02/22-rdf-syntax-ns#"
   xmlns:svg="http://www.w3.org/2000/svg"
   xmlns="http://www.w3.org/2000/svg"
   xmlns:sodipodi="http://sodipodi.sourceforge.net/DTD/sodipodi-0.dtd"
   xmlns:inkscape="http://www.inkscape.org/namespaces/inkscape"
   width="188.97638"
   height="188.97638"
   viewBox="0 0 50 50"
   version="1.1"
   id="svg8"
   inkscape:version="0.92.4 (5da689c313, 2019-01-14)"
   sodipodi:docname="twiterBurger.svg">
  <defs
     id="defs2" />
  <sodipodi:namedview
     id="base"
     pagecolor="#ffffff"
     bordercolor="#666666"
     borderopacity="1.0"
     inkscape:pageopacity="0.0"
     inkscape:pageshadow="2"
     inkscape:zoom="0.66468037"
     inkscape:cx="-123.36007"
     inkscape:cy="104.2615"
     inkscape:document-units="px"
     inkscape:current-layer="layer2"
     showgrid="false"
     units="px"
     inkscape:window-width="1366"
     inkscape:window-height="705"
     inkscape:window-x="-8"
     inkscape:window-y="-8"
     inkscape:window-maximized="1" />
  <metadata
     id="metadata5">
    <rdf:RDF>
      <cc:Work
         rdf:about="">
        <dc:format>image/svg+xml</dc:format>
        <dc:type
           rdf:resource="http://purl.org/dc/dcmitype/StillImage" />
        <dc:title />
      </cc:Work>
    </rdf:RDF>
  </metadata>
  <g
     inkscape:groupmode="layer"
     id="layer2"
     inkscape:label="Camada 2"
     style="display:inline;opacity:1"
     transform="translate(0,-50)">
    <g
       id="g29"
       transform="matrix(0.25518419,0,0,0.22460078,49.852982,57.979362)"
       inkscape:export-xdpi="96"
       inkscape:export-ydpi="96">
      <path
         sodipodi:nodetypes="cccccc"
         inkscape:connector-curvature="0"
         id="rect195-8-5-0-1-6"
         d="m -54.675554,102.93721 46.3345153,0.25512 c 0.902319,-0.12758 1.232469,1.21276 1.232469,1.21276 -0.272428,11.47158 -45.6679043,12.57027 -48.9468743,-0.17202 0,0 -0.25554,-1.35966 1.37989,-1.29586 z"
         style="display:inline;opacity:1;fill:#d45500;stroke-width:0.54713118" />
      <path
         inkscape:connector-curvature="0"
         id="rect54-3-4-3-0-1"
         d="m -32.035953,56.858154 c -12.24981,0.0652 -24.491301,7.07616 -24.815921,20.94443 -0.0532,1.09447 0.58503,0.91983 0.58503,0.91983 l 48.5450553,-0.18245 c 0,0 0.52492,-0.0398 0.55151,-0.95191 -0.357309,-13.91434 -12.6158703,-20.79504 -24.8656743,-20.72976 z m 0.95879,3.46749 a 0.51846789,0.77072243 0 0 1 0.51901,0.77072 0.51846789,0.77072243 0 0 1 -0.51901,0.77071 0.51846789,0.77072243 0 0 1 -0.517991,-0.77071 0.51846789,0.77072243 0 0 1 0.517991,-0.77072 z m -7.21228,0.61045 a 0.52824716,1.0134547 27.589472 0 1 10e-4,0 0.52824716,1.0134547 27.589472 0 1 0.21735,0.11557 0.52824716,1.0134547 27.589472 0 1 -0.22345,1.26549 0.52824716,1.0134547 27.589472 0 1 -0.91004,0.36374 0.52824716,1.0134547 27.589472 0 1 0.22243,-1.26407 0.52824716,1.0134547 27.589472 0 1 0.69269,-0.48084 z m 3.57821,0.82644 a 1.0876235,0.58819621 83.597908 0 1 0.63682,0.89615 1.0876235,0.58819621 83.597908 0 1 -0.380871,1.25296 1.0876235,0.58819621 83.597908 0 1 -0.753629,-0.88082 1.0876235,0.58819621 83.597908 0 1 0.380879,-1.25294 1.0876235,0.58819621 83.597908 0 1 0.116811,-0.0158 z m 6.939073,0.0447 a 0.54007075,1.0671543 0 0 1 0.540327,1.06758 0.54007075,1.0671543 0 0 1 -0.540327,1.06759 0.54007075,1.0671543 0 0 1 -0.539324,-1.06759 0.54007075,1.0671543 0 0 1 0.539324,-1.06758 z m 5.315013,0.23683 a 0.49686506,1.0671543 0 0 1 0.49666,1.06758 0.49686506,1.0671543 0 0 1 -0.49666,1.06756 0.49686506,1.0671543 0 0 1 -0.497686,-1.06756 0.49686506,1.0671543 0 0 1 0.497686,-1.06758 z m -21.351467,0.76655 a 0.6104505,1.280385 17.214745 0 1 0.217351,0.0598 0.6104505,1.280385 17.214745 0 1 0.0366,1.56092 0.6104505,1.280385 17.214745 0 1 -0.982159,0.78748 0.6104505,1.280385 17.214745 0 1 -0.0376,-1.56096 0.6104505,1.280385 17.214745 0 1 0.76582,-0.84737 z m 11.909771,1.67798 a 0.9404228,0.33706787 73.281767 0 1 10e-4,0 0.9404228,0.33706787 73.281767 0 1 0.5312,0.71779 0.9404228,0.33706787 73.281767 0 1 0.008,1.07451 0.9404228,0.33706787 73.281767 0 1 -0.5952,-0.69822 0.9404228,0.33706787 73.281767 0 1 -0.009,-1.07457 0.9404228,0.33706787 73.281767 0 1 0.064,-0.0185 z m 12.441984,0.13938 a 0.44338499,0.83768789 11.786056 0 1 0.115771,0.0337 0.44338499,0.83768789 11.786056 0 1 0.1554,1.02158 0.44338499,0.83768789 11.786056 0 1 -0.641911,0.56305 0.44338499,0.83768789 11.786056 0 1 -0.155389,-1.02297 0.44338499,0.83768789 11.786056 0 1 0.52611,-0.59512 z m -5.395256,0.12539 a 0.48215648,0.94829944 19.61008 0 1 0.164552,0.0668 0.48215648,0.94829944 19.61008 0 1 -0.0274,1.18463 0.48215648,0.94829944 19.61008 0 1 -0.784114,0.49617 0.48215648,0.94829944 19.61008 0 1 0.0274,-1.18327 0.48215648,0.94829944 19.61008 0 1 0.619559,-0.56441 z m -23.966809,1.33795 a 0.42775174,1.5931678 0 0 1 0.427591,1.59298 0.42775174,1.5931678 0 0 1 -0.427591,1.59298 0.42775174,1.5931678 0 0 1 -0.4276,-1.59298 0.42775174,1.5931678 0 0 1 0.4276,-1.59298 z m 9.547311,0.39997 a 0.50976421,1.0333309 14.360896 0 1 0.18182,0.0501 0.50976421,1.0333309 14.360896 0 1 0.0873,1.2766 0.50976421,1.0333309 14.360896 0 1 -0.782079,0.63832 0.50976421,1.0333309 14.360896 0 1 -0.0873,-1.27523 0.50976421,1.0333309 14.360896 0 1 0.60026,-0.68988 z m 23.079135,0.29685 a 0.62648197,0.65214978 0 0 1 0.62665,0.65086 0.62648197,0.65214978 0 0 1 -0.62665,0.65224 0.62648197,0.65214978 0 0 1 -0.626681,-0.65224 0.62648197,0.65214978 0 0 1 0.626681,-0.65086 z m -20.244385,0.73585 a 0.43859257,0.96364691 9.4690289 0 1 0.0741,0.0158 0.43859257,0.96364691 9.4690289 0 1 0.213289,1.10519 0.43859257,0.96364691 9.4690289 0 1 -0.615489,0.77069 0.43859257,0.96364691 9.4690289 0 1 -0.2133,-1.10518 0.43859257,0.96364691 9.4690289 0 1 0.54136,-0.78605 z m 8.95112,0.44181 a 0.94599669,0.4914533 76.260361 0 1 0.0011,0 0.94599669,0.4914533 76.260361 0 1 0.595185,0.64527 0.94599669,0.4914533 76.260361 0 1 -0.120877,1.16373 0.94599669,0.4914533 76.260361 0 1 -0.736359,-0.60209 0.94599669,0.4914533 76.260361 0 1 0.120845,-1.16372 0.94599669,0.4914533 76.260361 0 1 0.140156,-0.0432 z m 8.657584,1.19297 a 0.41045373,1.2450131 0 0 1 0.41034,1.24458 0.41045373,1.2450131 0 0 1 -0.41034,1.24598 0.41045373,1.2450131 0 0 1 -0.410329,-1.24598 0.41045373,1.2450131 0 0 1 0.410329,-1.24458 z m -25.034285,1.0634 a 0.55916041,0.85664423 34.376038 0 1 0.35345,0.22707 0.55916041,0.85664423 34.376038 0 1 -0.357519,1.09544 0.55916041,0.85664423 34.376038 0 1 -0.875501,0 0.55916041,0.85664423 34.376038 0 1 0.35853,-1.09544 0.55916041,0.85664423 34.376038 0 1 0.52104,-0.22707 z m 20.893387,0.50452 a 0.50077925,1.074158 27.276572 0 1 0.216344,0.0892 0.50077925,1.074158 27.276572 0 1 -0.227512,1.3017 0.50077925,1.074158 27.276572 0 1 -0.911061,0.48222 0.50077925,1.074158 27.276572 0 1 0.228531,-1.30171 0.50077925,1.074158 27.276572 0 1 0.693698,-0.57141 z m -8.214746,0.22573 a 0.61010112,0.80820992 50.489985 0 1 0.001,0 0.61010112,0.80820992 50.489985 0 1 0.50174,0.38047 0.61010112,0.80820992 50.489985 0 1 -0.57487,0.93656 0.61010112,0.80820992 50.489985 0 1 -0.86536,-0.30382 0.61010112,0.80820992 50.489985 0 1 0.57487,-0.93796 0.61010112,0.80820992 50.489985 0 1 0.3626,-0.0754 z"
         style="display:inline;opacity:1;fill:#d45500;stroke-width:0.60915858" />
      <path
         sodipodi:nodetypes="cccccccccccccccccccccccccccccccccccccccccccccccccccccccccccccccccccccccccccccccccccccccccccccccccccccccccccccccccccccccccccc"
         inkscape:connector-curvature="0"
         id="rect54-3-7-7-3-3-5"
         d="m -32.035963,56.858164 c -12.2498,0.0652 -24.491291,7.07616 -24.815911,20.94442 -0.0532,1.09447 0.58503,0.91983 0.58503,0.91983 0,0 -0.62103,-4.12759 24.301581,-4.74188 24.5715913,0 24.2434713,4.55943 24.2434713,4.55943 0,0 0.52492,-0.0398 0.551508,-0.95191 -0.35732,-13.91434 -12.6158783,-20.79503 -24.8656793,-20.72975 z m 0.95879,3.46749 c 0.28655,-4.5e-4 0.51901,0.34475 0.51901,0.77072 0,0.42597 -0.23246,0.77116 -0.51901,0.77071 -0.286151,-3.9e-4 -0.51799,-0.34533 -0.51799,-0.77071 0,-0.42538 0.231839,-0.77033 0.51799,-0.77072 z m -7.21228,0.61045 h 0.001 c 0.0887,0.005 0.1632,0.0447 0.21735,0.11557 0.18987,0.24884 0.0898,0.8155 -0.22345,1.26548 -0.313,0.44941 -0.72028,0.61221 -0.91004,0.36375 -0.18965,-0.24852 -0.0901,-0.8142 0.22243,-1.26407 0.21302,-0.30649 0.48064,-0.49226 0.69269,-0.48084 z m 3.578209,0.82644 c 0.28203,0.014 0.54834,0.38875 0.636821,0.89615 0.10273,0.58889 -0.0678,1.14975 -0.380871,1.25296 -0.31345,0.10323 -0.650979,-0.29126 -0.753629,-0.88082 -0.10272,-0.58888 0.0678,-1.14973 0.380879,-1.25294 0.038,-0.0125 0.0771,-0.0178 0.116811,-0.0158 z m 6.939071,0.0447 c 0.29846,-2.9e-4 0.540451,0.47784 0.540329,1.06758 1.22e-4,0.58974 -0.241869,1.06787 -0.540329,1.06758 -0.298069,-8.2e-4 -0.539441,-0.47862 -0.539319,-1.06758 -1.22e-4,-0.58896 0.24125,-1.06676 0.539319,-1.06758 z m 5.31501,0.23683 c 0.27441,2.3e-4 0.496769,0.47821 0.49666,1.06758 1.09e-4,0.58937 -0.22226,1.06733 -0.49666,1.06756 -0.274809,9.6e-4 -0.497789,-0.47735 -0.497681,-1.06756 -1.08e-4,-0.59022 0.222872,-1.06854 0.497681,-1.06758 z m -21.351451,0.76655 c 0.0803,-0.008 0.154001,0.012 0.217351,0.0598 0.281319,0.21395 0.297689,0.91267 0.0366,1.56092 -0.26104,0.64789 -0.700569,1.0003 -0.982159,0.78748 -0.281931,-0.21311 -0.29876,-0.91212 -0.0376,-1.56096 0.1951,-0.48417 0.49921,-0.82066 0.76582,-0.84737 z m 11.909771,1.67798 h 10e-4 c 0.16543,-0.004 0.38756,0.29629 0.53119,0.71779 0.16693,0.48984 0.17052,0.97114 0.008,1.07451 -0.16222,0.10314 -0.42856,-0.20931 -0.59518,-0.69822 -0.16675,-0.4888 -0.17091,-0.96965 -0.009,-1.07457 0.0195,-0.012 0.041,-0.0182 0.064,-0.0185 z m 12.441971,0.13938 c 0.0407,0.001 0.0797,0.0125 0.115779,0.0337 0.2198,0.12692 0.289351,0.58415 0.15539,1.02158 -0.134181,0.43834 -0.421781,0.69061 -0.641901,0.56305 -0.2203,-0.12674 -0.28992,-0.58499 -0.1554,-1.02297 0.10922,-0.35613 0.32445,-0.59959 0.526111,-0.59512 z m -5.395241,0.12539 c 0.0618,0.002 0.117639,0.0245 0.164539,0.0668 0.209172,0.18974 0.19689,0.72033 -0.0274,1.18463 -0.22415,0.46426 -0.575289,0.68646 -0.784098,0.49617 -0.20856,-0.18999 -0.196292,-0.71952 0.0274,-1.18327 0.167323,-0.34687 0.413412,-0.57106 0.619551,-0.56441 z m -23.966811,1.33795 c 0.236161,3.2e-4 0.42757,0.71339 0.4276,1.59298 -3e-5,0.87959 -0.191439,1.59267 -0.4276,1.59298 -0.23616,-3.1e-4 -0.427569,-0.71339 -0.4276,-1.59298 3.1e-5,-0.87959 0.19144,-1.59267 0.4276,-1.59298 z m 9.547311,0.39997 c 0.0661,-0.006 0.12773,0.0105 0.18181,0.0501 0.24033,0.17574 0.27945,0.74752 0.0873,1.2766 -0.19196,0.52872 -0.54211,0.81452 -0.78207,0.63832 -0.239821,-0.17597 -0.27891,-0.74672 -0.0873,-1.27523 0.14302,-0.39466 0.38133,-0.66856 0.60026,-0.68988 z m 23.07912,0.29685 c 0.34558,-1.1e-4 0.62598,0.29112 0.62667,0.65086 4e-5,0.36028 -0.280569,0.65235 -0.62667,0.65224 -0.34611,1.1e-4 -0.626719,-0.29196 -0.626671,-0.65224 7.93e-4,-0.35975 0.28108,-0.65097 0.626671,-0.65086 z m -20.24438,0.73585 c 0.0255,5.3e-4 0.0503,0.006 0.0741,0.0158 0.22876,0.0925 0.32422,0.58715 0.21329,1.10519 -0.11118,0.51797 -0.38667,0.86292 -0.61549,0.77069 -0.228751,-0.0925 -0.32422,-0.58714 -0.21329,-1.10518 0.0977,-0.45601 0.326119,-0.78762 0.54135,-0.78605 z m 8.951119,0.44181 h 0.0011 c 0.21934,-0.003 0.460561,0.25863 0.595191,0.64527 0.169751,0.48714 0.115649,1.00801 -0.12088,1.16373 -0.23694,0.15526 -0.566682,-0.11436 -0.736362,-0.60209 -0.169738,-0.48712 -0.115647,-1.00798 0.120859,-1.16372 0.0429,-0.0279 0.0901,-0.0425 0.140153,-0.0432 z m 8.65759,1.19297 c 0.226581,2.1e-4 0.410252,0.55729 0.410332,1.24458 1.8e-4,0.68783 -0.183571,1.24576 -0.410332,1.24597 -0.226759,-2.1e-4 -0.410509,-0.55814 -0.410329,-1.24597 7.9e-5,-0.68728 0.18375,-1.24437 0.410329,-1.24458 z m -25.03428,1.0634 c 0.15969,0.003 0.286461,0.0847 0.35345,0.22707 0.143211,0.30206 -0.0169,0.79263 -0.357519,1.09544 -0.340831,0.30293 -0.733021,0.30293 -0.875511,0 -0.14281,-0.30241 0.0178,-0.79298 0.35854,-1.09544 0.16675,-0.1482 0.35472,-0.23012 0.52104,-0.22707 z m 20.893381,0.50452 c 0.0885,-0.006 0.162629,0.0245 0.21634,0.0892 0.188409,0.22639 0.0866,0.80904 -0.22751,1.30169 -0.31455,0.49333 -0.722649,0.70934 -0.911061,0.48222 -0.187759,-0.22708 -0.0855,-0.80955 0.228531,-1.3017 0.214051,-0.33568 0.482089,-0.55647 0.6937,-0.57141 z m -8.214751,0.22573 h 0.001 c 0.25643,0.007 0.44883,0.15332 0.50174,0.38047 0.0794,0.34276 -0.17782,0.76176 -0.57487,0.93655 -0.39758,0.17505 -0.785,0.039 -0.86536,-0.30382 -0.0803,-0.34301 0.17711,-0.763 0.57488,-0.93795 0.12054,-0.0529 0.24521,-0.0788 0.36259,-0.0754 z"
         style="display:inline;opacity:1;fill:#d45500;stroke-width:0.60915858" />
      <ellipse
         ry="4.4389215"
         rx="24.829176"
         cy="78.167572"
         cx="-32.047359"
         id="path86-2-8-1-4"
         style="display:inline;opacity:1;fill:#ff7f2a;stroke-width:0.32271534" />
      <path
         sodipodi:nodetypes="cccccc"
         inkscape:connector-curvature="0"
         id="rect195-8-8-7-7-9-1"
         d="m -54.675554,102.93721 c 0,0 -1.69868,3.80232 22.187331,3.80232 25.2334103,0.36748 24.1471903,-3.54722 24.1471903,-3.54722 0.902311,-0.12756 1.232471,1.21276 1.232471,1.21276 -0.272431,11.4716 -45.6679123,12.5703 -48.9468823,-0.17199 0,0 -0.93762,-1.31513 1.37989,-1.29587 z"
         style="display:inline;opacity:1;fill:#d45500;stroke-width:0.54713118" />
      <ellipse
         ry="3.8585069"
         rx="24.314716"
         cy="103.78529"
         cx="-31.842707"
         id="path88-9-8-0-5"
         style="display:inline;opacity:1;fill:#ff7f2a;stroke-width:0.28423569" />
      <path
         inkscape:connector-curvature="0"
         id="path3725-4-1"
         d="m -31.743123,74.529574 a 15.926611,15.355732 0 0 0 -15.926721,15.35581 15.926611,15.355732 0 0 0 15.926721,15.355626 15.926611,15.355732 0 0 0 15.926565,-15.355626 15.926611,15.355732 0 0 0 -15.926565,-15.35581 z m 3.352478,9.58143 c 0.800867,0.008 1.621832,0.31036 2.281338,0.95743 0.884481,-0.0933 2.001287,-0.74826 2.001287,-0.74826 -0.366088,1.09422 -1.384707,1.68638 -1.384707,1.68638 0.881327,-0.0923 1.819545,-0.49885 1.819545,-0.49885 0,0 -0.764506,1.07172 -1.618711,1.61224 0.555811,5.39454 -6.13676,11.85107 -13.66381,7.58347 0,0 2.27227,0.3749 4.57728,-1.22029 -2.34569,-0.19775 -2.9234,-2.14993 -2.9234,-2.14993 0,0 0.685229,0.16539 1.41741,-0.0456 -2.52442,-0.64482 -2.503341,-2.9872 -2.503341,-2.9872 0.705061,0.36914 1.416261,0.38619 1.416261,0.38619 -2.29145,-1.727 -0.97387,-4.029 -0.97387,-4.029 2.83381,3.22993 6.49493,3.14202 6.49493,3.14202 -0.36661,-2.29825 1.297899,-3.7061 3.059788,-3.68866 z"
         style="display:inline;opacity:1;fill:#0000ff;stroke-width:0.14185144" />
    </g>
    <g
       id="g20"
       transform="matrix(0.25529464,0,0,0.22460075,38.874952,58.187296)"
       inkscape:export-xdpi="96"
       inkscape:export-ydpi="96">
      <path
         inkscape:connector-curvature="0"
         id="path3725-4"
         d="m -92.237103,73.431782 a 15.926611,15.355732 0 0 0 -15.926717,15.355811 15.926611,15.355732 0 0 0 15.926717,15.355627 15.926611,15.355732 0 0 0 15.926566,-15.355627 15.926611,15.355732 0 0 0 -15.926566,-15.355811 z m 3.352478,9.581431 c 0.800868,0.008 1.621833,0.310358 2.281339,0.957429 0.88448,-0.0933 2.001287,-0.74826 2.001287,-0.74826 -0.366088,1.094221 -1.384708,1.68638 -1.384708,1.68638 0.881327,-0.0923 1.819545,-0.498851 1.819545,-0.498851 0,0 -0.764506,1.071721 -1.61871,1.612241 0.55581,5.394539 -6.136761,11.851071 -13.663811,7.583469 0,0 2.27227,0.374901 4.57728,-1.22029 -2.34569,-0.19775 -2.9234,-2.149927 -2.9234,-2.149927 0,0 0.68523,0.165388 1.41741,-0.0456 -2.52442,-0.644822 -2.50334,-2.987202 -2.50334,-2.987202 0.70506,0.369142 1.41626,0.386191 1.41626,0.386191 -2.29145,-1.726999 -0.97387,-4.029008 -0.97387,-4.029008 2.83381,3.229938 6.49493,3.142027 6.49493,3.142027 -0.36661,-2.29825 1.297902,-3.706098 3.059788,-3.688659 z"
         style="display:inline;opacity:1;fill:#000000;stroke-width:0.14185144" />
      <path
         sodipodi:nodetypes="cccccc"
         inkscape:connector-curvature="0"
         id="rect195-8-5-0-1"
         d="m -115.16952,101.83942 46.334502,0.25512 c 0.902319,-0.12758 1.232469,1.21276 1.232469,1.21276 -0.272429,11.47159 -45.667891,12.57028 -48.946861,-0.17202 0,0 -0.25554,-1.35965 1.37989,-1.29586 z"
         style="display:inline;opacity:1;fill:#d45500;stroke-width:0.54713118" />
      <path
         inkscape:connector-curvature="0"
         id="rect54-3-4-3-0"
         d="m -92.529933,55.760362 c -12.249807,0.0652 -24.491287,7.07616 -24.815907,20.94443 -0.0532,1.09447 0.58503,0.91983 0.58503,0.91983 l 48.545041,-0.18245 c 0,0 0.52492,-0.0398 0.551511,-0.95191 -0.357309,-13.91434 -12.615871,-20.79504 -24.865675,-20.72976 z m 0.95879,3.46749 a 0.51846789,0.77072243 0 0 1 0.51901,0.77072 0.51846789,0.77072243 0 0 1 -0.51901,0.77071 0.51846789,0.77072243 0 0 1 -0.51799,-0.77071 0.51846789,0.77072243 0 0 1 0.51799,-0.77072 z m -7.21228,0.61045 a 0.52824716,1.0134547 27.589472 0 1 0.001,0 0.52824716,1.0134547 27.589472 0 1 0.21735,0.11557 0.52824716,1.0134547 27.589472 0 1 -0.22345,1.26549 0.52824716,1.0134547 27.589472 0 1 -0.91004,0.36374 0.52824716,1.0134547 27.589472 0 1 0.22243,-1.26407 0.52824716,1.0134547 27.589472 0 1 0.69269,-0.48084 z m 3.57821,0.82644 a 1.0876235,0.58819621 83.597908 0 1 0.63682,0.89615 1.0876235,0.58819621 83.597908 0 1 -0.38087,1.25296 1.0876235,0.58819621 83.597908 0 1 -0.75363,-0.88082 1.0876235,0.58819621 83.597908 0 1 0.38088,-1.25294 1.0876235,0.58819621 83.597908 0 1 0.11681,-0.0158 z m 6.939073,0.0447 a 0.54007075,1.0671543 0 0 1 0.540327,1.06758 0.54007075,1.0671543 0 0 1 -0.540327,1.06759 0.54007075,1.0671543 0 0 1 -0.539324,-1.06759 0.54007075,1.0671543 0 0 1 0.539324,-1.06758 z m 5.315014,0.23683 a 0.49686506,1.0671543 0 0 1 0.49666,1.06758 0.49686506,1.0671543 0 0 1 -0.49666,1.06756 0.49686506,1.0671543 0 0 1 -0.497687,-1.06756 0.49686506,1.0671543 0 0 1 0.497687,-1.06758 z m -21.351464,0.76655 a 0.6104505,1.280385 17.214745 0 1 0.21735,0.0598 0.6104505,1.280385 17.214745 0 1 0.0366,1.56092 0.6104505,1.280385 17.214745 0 1 -0.98216,0.78748 0.6104505,1.280385 17.214745 0 1 -0.0376,-1.56096 0.6104505,1.280385 17.214745 0 1 0.76582,-0.84737 z m 11.909767,1.67798 a 0.9404228,0.33706787 73.281767 0 1 0.001,0 0.9404228,0.33706787 73.281767 0 1 0.5312,0.71779 0.9404228,0.33706787 73.281767 0 1 0.008,1.07451 0.9404228,0.33706787 73.281767 0 1 -0.5952,-0.69822 0.9404228,0.33706787 73.281767 0 1 -0.009,-1.07457 0.9404228,0.33706787 73.281767 0 1 0.064,-0.0185 z m 12.441984,0.13938 a 0.44338499,0.83768789 11.786056 0 1 0.115771,0.0337 0.44338499,0.83768789 11.786056 0 1 0.155401,1.02158 0.44338499,0.83768789 11.786056 0 1 -0.641911,0.56305 0.44338499,0.83768789 11.786056 0 1 -0.15539,-1.02297 0.44338499,0.83768789 11.786056 0 1 0.526111,-0.59512 z m -5.395256,0.12539 a 0.48215648,0.94829944 19.61008 0 1 0.164552,0.0668 0.48215648,0.94829944 19.61008 0 1 -0.0274,1.18463 0.48215648,0.94829944 19.61008 0 1 -0.784114,0.49617 0.48215648,0.94829944 19.61008 0 1 0.0274,-1.18327 0.48215648,0.94829944 19.61008 0 1 0.619559,-0.56441 z m -23.966805,1.33795 a 0.42775174,1.5931678 0 0 1 0.42759,1.59298 0.42775174,1.5931678 0 0 1 -0.42759,1.59298 0.42775174,1.5931678 0 0 1 -0.4276,-1.59298 0.42775174,1.5931678 0 0 1 0.4276,-1.59298 z m 9.547307,0.39997 a 0.50976421,1.0333309 14.360896 0 1 0.18182,0.0501 0.50976421,1.0333309 14.360896 0 1 0.0873,1.2766 0.50976421,1.0333309 14.360896 0 1 -0.782077,0.63832 0.50976421,1.0333309 14.360896 0 1 -0.0873,-1.27523 0.50976421,1.0333309 14.360896 0 1 0.600257,-0.68988 z m 23.079136,0.29685 a 0.62648197,0.65214978 0 0 1 0.62665,0.65086 0.62648197,0.65214978 0 0 1 -0.62665,0.65224 0.62648197,0.65214978 0 0 1 -0.626682,-0.65224 0.62648197,0.65214978 0 0 1 0.626682,-0.65086 z m -20.244386,0.73585 a 0.43859257,0.96364691 9.4690289 0 1 0.0741,0.0158 0.43859257,0.96364691 9.4690289 0 1 0.21329,1.10519 0.43859257,0.96364691 9.4690289 0 1 -0.61549,0.77069 0.43859257,0.96364691 9.4690289 0 1 -0.2133,-1.10518 0.43859257,0.96364691 9.4690289 0 1 0.54136,-0.78605 z m 8.95112,0.44181 a 0.94599669,0.4914533 76.260361 0 1 0.0011,0 0.94599669,0.4914533 76.260361 0 1 0.595186,0.64527 0.94599669,0.4914533 76.260361 0 1 -0.120878,1.16373 0.94599669,0.4914533 76.260361 0 1 -0.736359,-0.60209 0.94599669,0.4914533 76.260361 0 1 0.120846,-1.16372 0.94599669,0.4914533 76.260361 0 1 0.140155,-0.0432 z m 8.657585,1.19297 a 0.41045373,1.2450131 0 0 1 0.410339,1.24458 0.41045373,1.2450131 0 0 1 -0.410339,1.24598 0.41045373,1.2450131 0 0 1 -0.410329,-1.24598 0.41045373,1.2450131 0 0 1 0.410329,-1.24458 z m -25.034282,1.0634 a 0.55916041,0.85664423 34.376038 0 1 0.35345,0.22707 0.55916041,0.85664423 34.376038 0 1 -0.35752,1.09544 0.55916041,0.85664423 34.376038 0 1 -0.8755,0 0.55916041,0.85664423 34.376038 0 1 0.35853,-1.09544 0.55916041,0.85664423 34.376038 0 1 0.52104,-0.22707 z m 20.893383,0.50452 a 0.50077925,1.074158 27.276572 0 1 0.216345,0.0892 0.50077925,1.074158 27.276572 0 1 -0.227513,1.3017 0.50077925,1.074158 27.276572 0 1 -0.911061,0.48222 0.50077925,1.074158 27.276572 0 1 0.228531,-1.30171 0.50077925,1.074158 27.276572 0 1 0.693698,-0.57141 z m -8.214746,0.22573 a 0.61010112,0.80820992 50.489985 0 1 0.001,0 0.61010112,0.80820992 50.489985 0 1 0.50174,0.38047 0.61010112,0.80820992 50.489985 0 1 -0.57487,0.93656 0.61010112,0.80820992 50.489985 0 1 -0.86536,-0.30382 0.61010112,0.80820992 50.489985 0 1 0.57487,-0.93796 0.61010112,0.80820992 50.489985 0 1 0.3626,-0.0754 z"
         style="display:inline;opacity:1;fill:#d45500;stroke-width:0.60915858" />
    </g>
  </g>
</svg>
