<?xml version="1.0" encoding="UTF-8" standalone="no"?>
<!-- Created with Inkscape (http://www.inkscape.org/) -->

<svg
   xmlns:dc="http://purl.org/dc/elements/1.1/"
   xmlns:cc="http://creativecommons.org/ns#"
   xmlns:rdf="http://www.w3.org/1999/02/22-rdf-syntax-ns#"
   xmlns:svg="http://www.w3.org/2000/svg"
   xmlns="http://www.w3.org/2000/svg"
   xmlns:sodipodi="http://sodipodi.sourceforge.net/DTD/sodipodi-0.dtd"
   xmlns:inkscape="http://www.inkscape.org/namespaces/inkscape"
   width="188.97638"
   height="188.97638"
   viewBox="0 0 50 50"
   version="1.1"
   id="svg8"
   inkscape:version="0.92.4 (5da689c313, 2019-01-14)"
   sodipodi:docname="whatsBurger.svg">
  <defs
     id="defs2" />
  <sodipodi:namedview
     id="base"
     pagecolor="#ffffff"
     bordercolor="#666666"
     borderopacity="1.0"
     inkscape:pageopacity="0.0"
     inkscape:pageshadow="2"
     inkscape:zoom="0.7716769"
     inkscape:cx="-188.2283"
     inkscape:cy="113.76226"
     inkscape:document-units="px"
     inkscape:current-layer="layer2"
     showgrid="false"
     inkscape:window-width="1366"
     inkscape:window-height="705"
     inkscape:window-x="-8"
     inkscape:window-y="-8"
     inkscape:window-maximized="1"
     units="px" />
  <metadata
     id="metadata5">
    <rdf:RDF>
      <cc:Work
         rdf:about="">
        <dc:format>image/svg+xml</dc:format>
        <dc:type
           rdf:resource="http://purl.org/dc/dcmitype/StillImage" />
        <dc:title />
      </cc:Work>
    </rdf:RDF>
  </metadata>
  <g
     inkscape:groupmode="layer"
     id="layer2"
     inkscape:label="Camada 2"
     style="display:inline;opacity:1"
     transform="translate(0,-247)">
    <g
       id="g18"
       transform="matrix(0.25529502,0,0,0.22460022,15.537092,226.99901)"
       inkscape:export-xdpi="96"
       inkscape:export-ydpi="96">
      <path
         inkscape:connector-curvature="0"
         id="path838-9"
         d="m -80.655242,203.96766 a 15.982796,15.324119 0 0 0 -15.982761,15.32396 15.982796,15.324119 0 0 0 3.190687,9.16046 l -2.132855,8.23091 8.606054,-3.32082 a 15.982796,15.324119 0 0 0 6.318875,1.25359 15.982796,15.324119 0 0 0 15.982964,-15.32414 15.982796,15.324119 0 0 0 -15.982964,-15.32396 z m 0.0364,0.6948 a 15.292627,14.629141 0 0 1 15.292641,14.62916 15.292627,14.629141 0 0 1 -15.292641,14.62916 15.292627,14.629141 0 0 1 -6.077169,-1.21105 l -7.958008,2.99285 1.951427,-7.45698 a 15.292627,14.629141 0 0 1 -3.208893,-8.95398 15.292627,14.629141 0 0 1 15.292643,-14.62916 z m -0.05381,2.07399 a 13.14948,12.578345 0 0 0 -13.149471,12.57837 13.14948,12.578345 0 0 0 3.297482,8.30681 l -1.43485,4.73712 5.080219,-1.96041 a 13.14948,12.578345 0 0 0 6.206622,1.49488 13.14948,12.578345 0 0 0 13.14947,-12.5784 13.14948,12.578345 0 0 0 -13.14947,-12.57837 z m -3.409536,5.77694 c 0.291439,-0.0187 0.398659,0.28075 0.398659,0.28075 0,0 1.413589,3.32091 1.422715,3.34248 0.165102,0.39406 -0.105381,0.65108 -0.105381,0.65108 l -1.121141,1.21045 c -0.272006,0.2602 -0.05419,0.58531 -0.05419,0.58531 1.497227,2.78498 4.483138,4.40026 4.483138,4.40026 0.349731,0.26022 0.711962,0.009 0.711962,0.009 l 1.163417,-1.1143 c 0.291439,-0.33453 0.910985,-0.14975 0.910985,-0.14975 l 3.465769,1.36814 c 0.218882,0.18322 0.190124,0.39686 0.190124,0.39686 l -0.0011,1.0514 c 0.01365,0.4057 -0.166865,0.59748 -0.166865,0.59748 0,0 -0.425998,0.73909 -1.520404,1.38034 0,0 -0.466096,0.29498 -0.931215,0.24262 -6.550747,-0.81131 -10.982799,-4.26039 -12.219492,-11.68719 -0.02738,-0.62816 0.370345,-1.14253 0.370345,-1.14253 0.560881,-0.69361 1.152288,-1.14449 1.152288,-1.14449 0.343617,-0.24981 0.244421,-0.19681 0.68425,-0.24939 z"
         style="display:inline;opacity:1;fill:#000000;fill-opacity:1;fill-rule:nonzero;stroke:none;stroke-width:0.13565373;stroke-miterlimit:4;stroke-dasharray:none;stroke-opacity:1" />
      <path
         sodipodi:nodetypes="cccccc"
         inkscape:connector-curvature="0"
         id="rect195-8-5-9"
         d="m -103.56935,232.31893 46.334509,0.25512 c 0.902319,-0.12758 1.232469,1.21276 1.232469,1.21276 -0.272428,11.47159 -45.667898,12.57028 -48.946868,-0.17201 0,0 -0.25554,-1.35966 1.37989,-1.29586 z"
         style="display:inline;opacity:1;fill:#d45500;stroke-width:0.54713118" />
      <path
         inkscape:connector-curvature="0"
         id="rect54-3-4-2"
         d="m -80.929672,186.23974 c -12.249804,0.0652 -24.491298,7.07616 -24.815918,20.94443 -0.0532,1.09447 0.58503,0.91983 0.58503,0.91983 l 48.545048,-0.18245 c 0,0 0.52492,-0.0398 0.551511,-0.95191 -0.35731,-13.91435 -12.615871,-20.79504 -24.865671,-20.72976 z m 0.95879,3.46749 a 0.51846789,0.77072243 0 0 1 0.51901,0.77072 0.51846789,0.77072243 0 0 1 -0.51901,0.77071 0.51846789,0.77072243 0 0 1 -0.51799,-0.77071 0.51846789,0.77072243 0 0 1 0.51799,-0.77072 z m -7.21228,0.61045 a 0.52824716,1.0134547 27.589472 0 1 10e-4,0 0.52824716,1.0134547 27.589472 0 1 0.21735,0.11557 0.52824716,1.0134547 27.589472 0 1 -0.22345,1.26548 0.52824716,1.0134547 27.589472 0 1 -0.910041,0.36375 0.52824716,1.0134547 27.589472 0 1 0.222431,-1.26407 0.52824716,1.0134547 27.589472 0 1 0.69269,-0.48084 z m 3.57821,0.82644 a 1.0876235,0.58819621 83.597908 0 1 0.63682,0.89615 1.0876235,0.58819621 83.597908 0 1 -0.38087,1.25296 1.0876235,0.58819621 83.597908 0 1 -0.75363,-0.88082 1.0876235,0.58819621 83.597908 0 1 0.38088,-1.25294 1.0876235,0.58819621 83.597908 0 1 0.11681,-0.0158 z m 6.939072,0.0447 a 0.54007075,1.0671543 0 0 1 0.540329,1.06758 0.54007075,1.0671543 0 0 1 -0.540329,1.06758 0.54007075,1.0671543 0 0 1 -0.539322,-1.06758 0.54007075,1.0671543 0 0 1 0.539322,-1.06758 z m 5.315008,0.23683 a 0.49686506,1.0671543 0 0 1 0.49666,1.06758 0.49686506,1.0671543 0 0 1 -0.49666,1.06756 0.49686506,1.0671543 0 0 1 -0.497679,-1.06756 0.49686506,1.0671543 0 0 1 0.497679,-1.06758 z m -21.351454,0.76655 a 0.6104505,1.280385 17.214745 0 1 0.21735,0.0598 0.6104505,1.280385 17.214745 0 1 0.0366,1.56092 0.6104505,1.280385 17.214745 0 1 -0.98216,0.78748 0.6104505,1.280385 17.214745 0 1 -0.0376,-1.56096 0.6104505,1.280385 17.214745 0 1 0.76582,-0.84737 z m 11.909764,1.67798 a 0.9404228,0.33706787 73.281767 0 1 0.001,0 0.9404228,0.33706787 73.281767 0 1 0.5312,0.71779 0.9404228,0.33706787 73.281767 0 1 0.008,1.07451 0.9404228,0.33706787 73.281767 0 1 -0.59519,-0.69822 0.9404228,0.33706787 73.281767 0 1 -0.009,-1.07457 0.9404228,0.33706787 73.281767 0 1 0.064,-0.0185 z m 12.44198,0.13938 a 0.44338499,0.83768789 11.786056 0 1 0.115779,0.0337 0.44338499,0.83768789 11.786056 0 1 0.155392,1.02158 0.44338499,0.83768789 11.786056 0 1 -0.64191,0.56305 0.44338499,0.83768789 11.786056 0 1 -0.15539,-1.02297 0.44338499,0.83768789 11.786056 0 1 0.526111,-0.59512 z m -5.395251,0.12539 a 0.48215648,0.94829944 19.61008 0 1 0.164552,0.0668 0.48215648,0.94829944 19.61008 0 1 -0.0274,1.18463 0.48215648,0.94829944 19.61008 0 1 -0.784111,0.49617 0.48215648,0.94829944 19.61008 0 1 0.0274,-1.18327 0.48215648,0.94829944 19.61008 0 1 0.619559,-0.56441 z m -23.966807,1.33795 a 0.42775174,1.5931678 0 0 1 0.42759,1.59298 0.42775174,1.5931678 0 0 1 -0.42759,1.59298 0.42775174,1.5931678 0 0 1 -0.4276,-1.59298 0.42775174,1.5931678 0 0 1 0.4276,-1.59298 z m 9.547314,0.39997 a 0.50976421,1.0333309 14.360896 0 1 0.181814,0.0501 0.50976421,1.0333309 14.360896 0 1 0.0873,1.2766 0.50976421,1.0333309 14.360896 0 1 -0.782074,0.63832 0.50976421,1.0333309 14.360896 0 1 -0.0873,-1.27523 0.50976421,1.0333309 14.360896 0 1 0.60026,-0.68988 z m 23.079126,0.29685 a 0.62648197,0.65214978 0 0 1 0.626657,0.65086 0.62648197,0.65214978 0 0 1 -0.626657,0.65224 0.62648197,0.65214978 0 0 1 -0.626682,-0.65224 0.62648197,0.65214978 0 0 1 0.626682,-0.65086 z m -20.244382,0.73585 a 0.43859257,0.96364691 9.4690289 0 1 0.0741,0.0158 0.43859257,0.96364691 9.4690289 0 1 0.21329,1.10519 0.43859257,0.96364691 9.4690289 0 1 -0.61549,0.77069 0.43859257,0.96364691 9.4690289 0 1 -0.2133,-1.10518 0.43859257,0.96364691 9.4690289 0 1 0.54136,-0.78605 z m 8.951121,0.44181 a 0.94599669,0.4914533 76.260361 0 1 0.0011,0 0.94599669,0.4914533 76.260361 0 1 0.595188,0.64527 0.94599669,0.4914533 76.260361 0 1 -0.12088,1.16373 0.94599669,0.4914533 76.260361 0 1 -0.736359,-0.60209 0.94599669,0.4914533 76.260361 0 1 0.120851,-1.16372 0.94599669,0.4914533 76.260361 0 1 0.14015,-0.0432 z m 8.657579,1.19297 a 0.41045373,1.2450131 0 0 1 0.41034,1.24458 0.41045373,1.2450131 0 0 1 -0.41034,1.24598 0.41045373,1.2450131 0 0 1 -0.410321,-1.24598 0.41045373,1.2450131 0 0 1 0.410321,-1.24458 z m -25.034274,1.0634 a 0.55916041,0.85664423 34.376038 0 1 0.35345,0.22707 0.55916041,0.85664423 34.376038 0 1 -0.35752,1.09544 0.55916041,0.85664423 34.376038 0 1 -0.87551,0 0.55916041,0.85664423 34.376038 0 1 0.35854,-1.09544 0.55916041,0.85664423 34.376038 0 1 0.52104,-0.22707 z m 20.893384,0.50452 a 0.50077925,1.074158 27.276572 0 1 0.216342,0.0892 0.50077925,1.074158 27.276572 0 1 -0.227513,1.3017 0.50077925,1.074158 27.276572 0 1 -0.911058,0.48222 0.50077925,1.074158 27.276572 0 1 0.228528,-1.30171 0.50077925,1.074158 27.276572 0 1 0.693701,-0.57141 z m -8.21475,0.22573 a 0.61010112,0.80820992 50.489985 0 1 0.001,0 0.61010112,0.80820992 50.489985 0 1 0.50174,0.38047 0.61010112,0.80820992 50.489985 0 1 -0.57487,0.93656 0.61010112,0.80820992 50.489985 0 1 -0.86536,-0.30382 0.61010112,0.80820992 50.489985 0 1 0.57487,-0.93796 0.61010112,0.80820992 50.489985 0 1 0.3626,-0.0754 z"
         style="display:inline;opacity:1;fill:#d45500;stroke-width:0.60915858" />
    </g>
    <g
       id="g25"
       transform="matrix(0.25518475,0,0,0.22460017,-34.83172,229.69514)"
       inkscape:export-xdpi="96"
       inkscape:export-ydpi="96">
      <path
         sodipodi:nodetypes="cccccccccccccccccccccccccccccccccccccccccccccccccccccccccccccccccccccccccccccccccccccccccccccccccccccccccccccccccccccccccccc"
         inkscape:connector-curvature="0"
         id="rect54-3-7-7-8"
         d="m -21.925018,186.57569 c -12.2498,0.0652 -24.491296,7.07616 -24.815916,20.94442 -0.0532,1.09447 0.58503,0.91983 0.58503,0.91983 0,0 -0.62103,-4.12759 24.301586,-4.74188 24.5715908,0 24.2434598,4.55943 24.2434598,4.55943 0,0 0.52492,-0.0398 0.551511,-0.95191 -0.357309,-13.91434 -12.61587,-20.79503 -24.8656708,-20.72975 z m 0.95879,3.46749 c 0.28655,-4.5e-4 0.51901,0.34475 0.51901,0.77072 0,0.42597 -0.23246,0.77116 -0.51901,0.77071 -0.28615,-4e-4 -0.51799,-0.34533 -0.51799,-0.77071 0,-0.42538 0.23184,-0.77033 0.51799,-0.77072 z m -7.21228,0.61045 h 0.001 c 0.0887,0.005 0.1632,0.0447 0.21735,0.11557 0.18987,0.24884 0.0898,0.8155 -0.22345,1.26548 -0.313,0.44941 -0.72028,0.61221 -0.91004,0.36375 -0.18965,-0.24852 -0.0901,-0.8142 0.22243,-1.26407 0.21302,-0.30649 0.48064,-0.49226 0.69269,-0.48084 z m 3.57821,0.82644 c 0.28203,0.014 0.54834,0.38875 0.63682,0.89615 0.10273,0.58889 -0.0678,1.14975 -0.38087,1.25296 -0.31345,0.10323 -0.65098,-0.29126 -0.75363,-0.88082 -0.10272,-0.58888 0.0678,-1.14973 0.38088,-1.25294 0.038,-0.0125 0.0771,-0.0178 0.11681,-0.0158 z m 6.939069,0.0447 c 0.29845,-2.9e-4 0.540441,0.47784 0.540332,1.06758 1.09e-4,0.58974 -0.241882,1.06787 -0.540332,1.06758 -0.298079,-8.2e-4 -0.539437,-0.47862 -0.539318,-1.06758 -1.19e-4,-0.58896 0.241239,-1.06676 0.539318,-1.06758 z m 5.315001,0.23683 c 0.274409,2.3e-4 0.496781,0.47821 0.496659,1.06758 1.22e-4,0.58937 -0.22225,1.06733 -0.496659,1.06756 -0.274799,9.5e-4 -0.49779,-0.47735 -0.497668,-1.06756 -1.22e-4,-0.59022 0.222869,-1.06854 0.497668,-1.06758 z m -21.35144,0.76655 c 0.0803,-0.008 0.154,0.012 0.21735,0.0598 0.28132,0.21395 0.29769,0.91267 0.0366,1.56092 -0.26104,0.64789 -0.70057,1.0003 -0.98216,0.78748 -0.28193,-0.21311 -0.29876,-0.91212 -0.0376,-1.56096 0.1951,-0.48417 0.49921,-0.82066 0.76582,-0.84737 z m 11.90977,1.67798 h 10e-4 c 0.16543,-0.004 0.38756,0.29629 0.53119,0.71779 0.16693,0.48984 0.17052,0.97114 0.008,1.07451 -0.16222,0.10314 -0.42856,-0.20931 -0.59518,-0.69822 -0.16675,-0.4888 -0.17091,-0.96965 -0.009,-1.07457 0.0195,-0.012 0.041,-0.0182 0.064,-0.0185 z m 12.4419598,0.13938 c 0.0407,0.001 0.0797,0.0125 0.115789,0.0337 0.2198,0.12692 0.289341,0.58415 0.15539,1.02158 -0.134178,0.43834 -0.421777,0.69061 -0.641897,0.56305 -0.2203,-0.12674 -0.2899198,-0.58499 -0.155401,-1.02297 0.10922,-0.35613 0.324448,-0.59959 0.526108,-0.59512 z m -5.3952408,0.12539 c 0.0618,0.002 0.117653,0.0245 0.16455,0.0668 0.209172,0.18974 0.196892,0.72033 -0.0274,1.18463 -0.224152,0.46426 -0.575291,0.68646 -0.7841,0.49617 -0.208561,-0.18999 -0.196292,-0.71952 0.0274,-1.18327 0.16732,-0.34687 0.413409,-0.57106 0.619548,-0.56441 z m -23.966795,1.33795 c 0.23616,3.2e-4 0.42757,0.71339 0.4276,1.59298 -3e-5,0.87959 -0.19144,1.59267 -0.4276,1.59298 -0.23616,-3.2e-4 -0.42757,-0.71339 -0.4276,-1.59298 3e-5,-0.87959 0.19144,-1.59267 0.4276,-1.59298 z m 9.547306,0.39997 c 0.0661,-0.006 0.12773,0.0105 0.18181,0.0501 0.24033,0.17574 0.27945,0.74752 0.0873,1.2766 -0.19196,0.52872 -0.54211,0.81452 -0.78207,0.63832 -0.23982,-0.17597 -0.27891,-0.74672 -0.0873,-1.27523 0.14302,-0.39466 0.38133,-0.66856 0.60026,-0.68988 z m 23.0791188,0.29685 c 0.345581,-1.1e-4 0.625973,0.29112 0.626661,0.65086 3.9e-5,0.36028 -0.280559,0.65235 -0.626661,0.65224 -0.34612,1.1e-4 -0.626718,-0.29196 -0.626668,-0.65224 7.94e-4,-0.35975 0.28108,-0.65097 0.626668,-0.65086 z m -20.2443788,0.73585 c 0.0255,5.3e-4 0.0503,0.006 0.0741,0.0158 0.22876,0.0925 0.32422,0.58715 0.21329,1.10519 -0.11118,0.51797 -0.38667,0.86292 -0.61549,0.77069 -0.22875,-0.0925 -0.32422,-0.58714 -0.21329,-1.10518 0.0977,-0.45601 0.32612,-0.78762 0.54135,-0.78605 z m 8.951121,0.44181 h 0.0011 c 0.219329,-0.003 0.46056,0.25863 0.59518,0.64527 0.169749,0.48714 0.11566,1.00801 -0.120872,1.16373 -0.236951,0.15526 -0.56669,-0.11436 -0.73637,-0.60209 -0.16973,-0.48712 -0.11565,-1.00798 0.120869,-1.16372 0.0429,-0.0279 0.0901,-0.0425 0.140153,-0.0432 z m 8.6575898,1.19297 c 0.226568,2.1e-4 0.41025,0.55729 0.410319,1.24458 1.8e-4,0.68783 -0.183571,1.24576 -0.410319,1.24597 -0.226771,-2.1e-4 -0.410519,-0.55814 -0.410339,-1.24597 9e-5,-0.68728 0.183747,-1.24437 0.410339,-1.24458 z m -25.0342808,1.0634 c 0.15969,0.003 0.28646,0.0847 0.35345,0.22707 0.14321,0.30206 -0.0169,0.79263 -0.35752,1.09544 -0.34083,0.30293 -0.73302,0.30293 -0.87551,0 -0.14281,-0.30241 0.0178,-0.79298 0.35854,-1.09544 0.16675,-0.1482 0.35472,-0.23012 0.52104,-0.22707 z m 20.89337,0.50452 c 0.0885,-0.006 0.162642,0.0245 0.216349,0.0892 0.18841,0.22639 0.0866,0.80904 -0.22751,1.30169 -0.314557,0.49333 -0.722648,0.70934 -0.911058,0.48222 -0.187769,-0.22708 -0.0855,-0.80955 0.228518,-1.3017 0.214051,-0.33568 0.482103,-0.55647 0.693701,-0.57141 z m -8.21474,0.22573 h 0.001 c 0.25643,0.007 0.44883,0.15332 0.50174,0.38047 0.0794,0.34276 -0.17782,0.76176 -0.57487,0.93655 -0.39758,0.17505 -0.785,0.039 -0.86536,-0.30382 -0.0803,-0.34301 0.17711,-0.763 0.57488,-0.93795 0.12054,-0.0529 0.24521,-0.0788 0.36259,-0.0754 z"
         style="display:inline;opacity:1;fill:#d45500;stroke-width:0.60915858" />
      <path
         sodipodi:nodetypes="cccccc"
         inkscape:connector-curvature="0"
         id="rect195-8-8-7-1"
         d="m -44.564694,232.65489 c 0,0 -1.69868,3.80233 22.187326,3.80233 C 2.8560308,236.8247 1.7698128,232.91 1.7698128,232.91 c 0.90232,-0.12757 1.232469,1.21276 1.232469,1.21276 -0.272431,11.4716 -45.6678958,12.5703 -48.9468758,-0.172 0,0 -0.93761,-1.31512 1.3799,-1.29587 z"
         style="display:inline;opacity:1;fill:#d45500;stroke-width:0.54713118" />
      <ellipse
         ry="4.4389215"
         rx="24.829176"
         cy="207.88512"
         cx="-21.936407"
         id="path86-2-1"
         style="display:inline;opacity:1;fill:#ff7f2a;stroke-width:0.32271534" />
      <ellipse
         ry="3.8585069"
         rx="24.314716"
         cy="233.50301"
         cx="-21.731848"
         id="path88-9-6"
         style="display:inline;opacity:1;fill:#ff7f2a;stroke-width:0.28423563" />
      <path
         inkscape:connector-curvature="0"
         id="path838-9-7-0"
         d="m -21.650584,204.3036 a 15.982796,15.324119 0 0 0 -15.98276,15.32396 15.982796,15.324119 0 0 0 3.190686,9.16046 l -2.132856,8.23091 8.606055,-3.32082 a 15.982796,15.324119 0 0 0 6.318875,1.25359 15.982796,15.324119 0 0 0 15.9829648,-15.32414 15.982796,15.324119 0 0 0 -15.9829648,-15.32396 z m 0.0364,0.6948 a 15.292627,14.629141 0 0 1 15.2926418,14.62916 15.292627,14.629141 0 0 1 -15.2926418,14.62916 15.292627,14.629141 0 0 1 -6.077169,-1.21105 l -7.958011,2.99285 1.95143,-7.45698 a 15.292627,14.629141 0 0 1 -3.20889,-8.95398 15.292627,14.629141 0 0 1 15.29264,-14.62916 z m -0.05381,2.07399 a 13.14948,12.578345 0 0 0 -13.149471,12.57837 13.14948,12.578345 0 0 0 3.297482,8.30681 l -1.43485,4.73712 5.080219,-1.96041 a 13.14948,12.578345 0 0 0 6.206622,1.49488 13.14948,12.578345 0 0 0 13.1494688,-12.5784 13.14948,12.578345 0 0 0 -13.1494688,-12.57837 z m -3.409536,5.77694 c 0.291439,-0.0187 0.398659,0.28075 0.398659,0.28075 0,0 1.413589,3.32091 1.422715,3.34248 0.165102,0.39406 -0.105381,0.65108 -0.105381,0.65108 l -1.121141,1.21045 c -0.272006,0.2602 -0.05419,0.58531 -0.05419,0.58531 1.497227,2.78498 4.483139,4.40026 4.483139,4.40026 0.349729,0.26022 0.711962,0.009 0.711962,0.009 l 1.163415,-1.1143 c 0.291442,-0.33453 0.910987,-0.14975 0.910987,-0.14975 l 3.465769,1.36814 c 0.218882,0.18322 0.190122,0.39686 0.190122,0.39686 l -0.0011,1.0514 c 0.01365,0.4057 -0.166865,0.59748 -0.166865,0.59748 0,0 -0.425998,0.73909 -1.520404,1.38034 0,0 -0.466098,0.29498 -0.931217,0.24262 -6.550745,-0.81131 -10.982797,-4.26039 -12.21949,-11.68719 -0.02738,-0.62816 0.370345,-1.14253 0.370345,-1.14253 0.560881,-0.69361 1.152288,-1.14449 1.152288,-1.14449 0.343617,-0.24981 0.244421,-0.19681 0.68425,-0.24939 z"
         style="display:inline;opacity:1;fill:#1bdb23;fill-opacity:1;fill-rule:nonzero;stroke:none;stroke-width:0.13565373;stroke-miterlimit:4;stroke-dasharray:none;stroke-opacity:1" />
    </g>
  </g>
</svg>
